<?xml version="1.0" standalone="no"?><svg xmlns="http://www.w3.org/2000/svg" viewBox="0 0 1440 320"><path fill="#124f88" fill-opacity="1" d="M0,0L30,26.7C60,53,120,107,180,117.3C240,128,300,96,360,74.7C420,53,480,43,540,80C600,117,660,203,720,240C780,277,840,267,900,234.7C960,203,1020,149,1080,149.3C1140,149,1200,203,1260,213.3C1320,224,1380,192,1410,176L1440,160L1440,0L1410,0C1380,0,1320,0,1260,0C1200,0,1140,0,1080,0C1020,0,960,0,900,0C840,0,780,0,720,0C660,0,600,0,540,0C480,0,420,0,360,0C300,0,240,0,180,0C120,0,60,0,30,0L0,0Z"></path></svg>