<svg id="visual" viewBox="0 0 900 600" width="900" height="600" xmlns="http://www.w3.org/2000/svg" xmlns:xlink="http://www.w3.org/1999/xlink" version="1.1"><path d="M0 490L21.5 499.5C43 509 86 528 128.8 528.5C171.7 529 214.3 511 257.2 512.2C300 513.3 343 533.7 385.8 543C428.7 552.3 471.3 550.7 514.2 543.5C557 536.3 600 523.7 642.8 511C685.7 498.3 728.3 485.7 771.2 484.8C814 484 857 495 878.5 500.5L900 506L900 601L878.5 601C857 601 814 601 771.2 601C728.3 601 685.7 601 642.8 601C600 601 557 601 514.2 601C471.3 601 428.7 601 385.8 601C343 601 300 601 257.2 601C214.3 601 171.7 601 128.8 601C86 601 43 601 21.5 601L0 601Z" fill="#124F88" stroke-linecap="round" stroke-linejoin="miter"></path></svg>